<?xml version="1.0" encoding="utf-8"?>
<!-- Generator: Adobe Illustrator 21.1.0, SVG Export Plug-In . SVG Version: 6.00 Build 0)  -->
<svg version="1.1" id="Layer_1" xmlns="http://www.w3.org/2000/svg" xmlns:xlink="http://www.w3.org/1999/xlink" x="0px" y="0px"
	 viewBox="0 0 2560 1600" style="enable-background:new 0 0 2560 1600;" xml:space="preserve">
<style type="text/css">
	.st0{fill:#303568;}
	.st1{fill:#42210B;}
	.st2{fill:url(#SVGID_1_);}
	.st3{fill:#68412C;}
</style>
<g>
	<rect x="1" y="0.5" class="st0" width="2559" height="1599"/>
	<path d="M2559.5,1v1598H1.5V1H2559.5 M2560.5,0H0.5v1600h2560V0L2560.5,0z"/>
</g>
<g>
	<path class="st1" d="M1811.2,419.1c-190.8,0-345.4,154.7-345.4,345.4s154.7,345.4,345.4,345.4c190.8,0,345.4-154.7,345.4-345.4
		S2002,419.1,1811.2,419.1z M1811.4,1085.8c-177.6,0-321.5-143.9-321.5-321.5s143.9-321.5,321.5-321.5s321.5,143.9,321.5,321.5
		S1989,1085.8,1811.4,1085.8z"/>
</g>
<g>
	
		<linearGradient id="SVGID_1_" gradientUnits="userSpaceOnUse" x1="1811.4036" y1="709.1591" x2="1811.4036" y2="973.2302" gradientTransform="matrix(1 0 0 -1 0 1600)">
		<stop  offset="0" style="stop-color:#A67C52"/>
		<stop  offset="4.689697e-03" style="stop-color:#986F48"/>
		<stop  offset="1.557964e-02" style="stop-color:#7D5735"/>
		<stop  offset="2.810451e-02" style="stop-color:#674326"/>
		<stop  offset="4.272783e-02" style="stop-color:#56341A"/>
		<stop  offset="6.080757e-02" style="stop-color:#4B2911"/>
		<stop  offset="8.617661e-02" style="stop-color:#44230C"/>
		<stop  offset="0.1566" style="stop-color:#42210B"/>
		<stop  offset="0.262" style="stop-color:#736357"/>
		<stop  offset="0.4097" style="stop-color:#A67C52"/>
		<stop  offset="0.5473" style="stop-color:#42210B"/>
		<stop  offset="0.7113" style="stop-color:#6E4621"/>
		<stop  offset="0.8322" style="stop-color:#704822"/>
		<stop  offset="0.8689" style="stop-color:#754C24"/>
		<stop  offset="0.9481" style="stop-color:#774E26"/>
		<stop  offset="0.9766" style="stop-color:#7E542C"/>
		<stop  offset="0.9969" style="stop-color:#896037"/>
		<stop  offset="1" style="stop-color:#8C6239"/>
	</linearGradient>
	<circle class="st2" cx="1811.4" cy="764.3" r="321.5"/>
</g>
<g>
	<path class="st3" d="M1978,894.2h-166.7v-0.4h-45.5c-10.4,0-18.9-8.4-18.9-18.9c0-5.2,2.1-9.9,5.5-13.3c3.4-3.4,8.1-5.5,13.3-5.5h6
		c1.7,0.5,3.4,0.7,5.2,0.7h147c10.5,0,18.9-8.5,18.9-18.9l0,0c0-10.5-8.5-18.9-18.9-18.9h-147c-0.8,0-1.6,0.1-2.4,0.2H1708
		c-10.4,0-18.9-8.4-18.9-18.9c0-5.2,2.1-9.9,5.5-13.3c3.4-3.4,8.1-5.5,13.3-5.5h55.1c0.9,0.1,1.8,0.2,2.7,0.2h152.9
		c10.5,0,18.9-8.5,18.9-18.9c0-10.5-8.5-18.9-18.9-18.9h-152.9c-1.8,0-3.4,0.3-5,0.7h-3.2c-10.4,0-18.9-8.4-18.9-18.8
		c0-5.2,2.1-9.9,5.5-13.3c3.4-3.4,8.1-5.5,13.3-5.5h53.6v-0.3h63.2c10.5,0,18.9-8.5,18.9-18.9c0-10.5-8.5-18.9-18.9-18.9H1811v-0.2
		h-123.2c-10.4,0-18.9-8.5-18.9-18.9c0-5.2,2.1-9.9,5.5-13.3c3.4-3.4,8.1-5.5,13.3-5.5h90.1c1.5,0.4,3.1,0.6,4.7,0.6h152.2
		c10.5,0,18.9-8.5,18.9-18.9l0,0c0-10.5-8.5-18.9-18.9-18.9h-151.8c-1.1,0-2.2,0.1-3.3,0.3h-13.8c-10.4,0-18.9-8.4-18.9-18.9
		c0-5.2,2.1-9.9,5.5-13.3c3.4-3.4,8.1-5.5,13.3-5.5h15.8c0.4,0,0.8,0.1,1.3,0.1h75.3c10.5,0,18.9-8.5,18.9-18.9
		c0-10.5-8.5-18.9-18.9-18.9h-60.2c-9.2-1.3-16.2-9.1-16.2-18.7c0-5.2,2.1-9.9,5.5-13.3s8.1-5.5,13.3-5.5h7.3
		c0.8,0.1,1.6,0.2,2.4,0.2h37.5c10.5,0,18.9-8.5,18.9-18.9c0-10.5-8.5-18.9-18.9-18.9h-37.5c-0.1,0-0.3,0-0.4,0
		c-177,0.8-320.3,144.5-320.3,321.7c0,177.6,143.9,321.6,321.4,321.8h0.1h0.3l0,0l0,0h26.9c10.5,0,18.9-8.5,18.9-18.9l0,0
		c0-10.5-8.5-18.9-18.9-18.9h-26.9v-1.4h-6.3c-10.4,0-18.9-8.4-18.9-18.9c0-5.2,2.1-9.9,5.5-13.3c3.4-3.4,8.1-5.5,13.3-5.5h6.3v-0.7
		h86.8c10.5,0,18.9-8.5,18.9-18.9l0,0c0-10.5-8.5-18.9-18.9-18.9h-86.8v-0.6h-53.6c-10.4,0-18.9-8.5-18.9-18.9
		c0-5.2,2.1-9.9,5.5-13.3c3.4-3.4,8.1-5.5,13.3-5.5h53.6v-0.2h166.7c10.5,0,18.9-8.5,18.9-18.9l0,0
		C1996.9,902.7,1988.4,894.2,1978,894.2z"/>
</g>
</svg>
