<?xml version="1.0" encoding="utf-8"?>
<!-- Generator: Adobe Illustrator 21.1.0, SVG Export Plug-In . SVG Version: 6.00 Build 0)  -->
<svg version="1.1" id="Layer_1" xmlns="http://www.w3.org/2000/svg" xmlns:xlink="http://www.w3.org/1999/xlink" x="0px" y="0px"
	 viewBox="0 0 2560 1600" style="enable-background:new 0 0 2560 1600;" xml:space="preserve">
<style type="text/css">
	.st0{fill:#303568;}
	.st1{fill:#AF8456;}
	.st2{fill:#2771C1;}
	.st3{fill:#17CE31;}
	.st4{fill:#FFFFFF;}
</style>
<g>
	<rect x="0.5" y="0.5" class="st0" width="2559" height="1599"/>
	<path d="M2559,1v1598H1V1H2559 M2560,0H0v1600h2560V0L2560,0z"/>
</g>
<g>
	<path class="st1" d="M1794.1,482.6c-181.9,0-329.2,147.5-329.2,329.2c0,182,147.5,329.2,329.2,329.2c182,0,329.2-147.5,329.2-329.2
		C2123.5,629.9,1976,482.6,1794.1,482.6z M1794.4,1118c-169.4,0-306.4-137.4-306.4-306.4c0-169.4,137.4-306.4,306.4-306.4
		s306.4,137.4,306.4,306.4C2100.8,980.9,1963.7,1118,1794.4,1118z"/>
</g>
<g>
	<circle class="st2" cx="1794.4" cy="811.5" r="306.4"/>
</g>
<path class="st3" d="M1747.1,579v32.3c0,8.7-7.2,15.9-15.9,15.9h-34.4c-4.5,0-8.4,1.8-11.1,4.5c-2.7,3-4.5,6.9-4.5,11.1
	c0,8.7,7.2,15.9,15.9,15.9h10.5c8.7,0,15.9,7.2,15.9,15.9v41.9c0,8.7-7.2,15.9-15.9,15.9h-231.9c6.3-25.7,15.9-50.3,28.1-73.3h146.9
	c4.5,0,8.4-1.8,11.1-4.5c2.7-3,4.5-6.9,4.5-11.1c0-8.7-7.2-15.9-15.9-15.9h-6.6c-8.7,0-15.9-7.2-15.9-15.9v-32.3
	c0-8.7,7.2-15.9,15.9-15.9h87.7C1740.2,563.4,1747.1,570.3,1747.1,579z"/>
<path class="st3" d="M2124.4,811.8c0,36.8-6,72.1-17.1,105h-220.6c-37.7,0-68.2-30.5-68.2-68.2c0-18.9,7.5-35.9,20.1-48.2
	c12.3-12.3,29.3-20.1,48.2-20.1h236.1C2123.8,790.9,2124.4,801.3,2124.4,811.8z"/>
<path class="st3" d="M1757.6,1038.1v14.4c0,6.6-3.3,12.6-8.7,15.9c-3,2.1-6.6,3.3-10.5,3.3h-146c-2.7-2.1-5.7-4.5-8.4-6.6
	c-13.8-11.7-26.6-24.2-38.3-37.7c0.6-0.9,1.2-1.5,2.1-2.4c3.6-3.6,8.1-5.7,13.5-5.7c2.4,0,4.8-0.6,7.2-1.5c7.2-2.7,12-9.6,12-17.7
	v-16.2c0-10.5-8.7-19.2-19.2-19.2h-57.8c-9-17.4-16.8-35.3-22.4-54.5c-5.1-16.8-9-33.8-11.7-51.5h160.7c10.5,0,19.2,8.7,19.2,19.2
	v67.6c0,10.5-8.7,19.2-19.2,19.2h-16.2c-10.5,0-19.2,8.7-19.2,19.2v16.2c0,10.5,8.7,19.2,19.2,19.2h124.8
	C1749.2,1018.9,1757.6,1027.6,1757.6,1038.1z"/>
<path class="st3" d="M1584.3,779.2c0,7.5-3,14.4-8.1,19.2c-4.8,4.8-11.7,8.1-19.2,8.1h-91c0-1.5,0-3.3,0-4.8
	c0.6-16.8,2.4-33.5,5.4-49.7h85.6C1572,752,1584.3,764.2,1584.3,779.2z"/>
<path class="st4" d="M1749.2,1067.1v7.5c0,15-12.3,27.2-27.2,27.2h-82.6c-16.5-9-32-19.2-46.7-30.5c-2.7-2.1-5.7-4.5-8.4-6.6
	c0.6-8.4,5.4-15.6,12-20.1l0,0c4.2-3,9.6-4.8,15.3-4.8h110.7C1736.9,1039.9,1749.2,1052.1,1749.2,1067.1z"/>
<path class="st4" d="M1567.8,867.8v30.5c0,6.6-5.4,12-12,12h-75.1c-5.1-16.8-9.3-33.8-11.7-51.5h-0.9c0-0.9-0.3-1.8-0.3-3h1.2
	c6.6,0,12-5.4,12-12v-30.5c0-2.7-0.9-5.1-2.4-7.2c-2.1-3-5.7-4.8-9.6-4.8h-3c0.6-16.8,2.4-33.5,5.4-49.7c0.3-1.5,0.6-3.3,0.9-4.8
	h45.8c5.7,0,11.1,1.8,15.3,4.8c1.5,0.9,2.7,2.1,3.9,3.3c4.8,4.8,8.1,11.7,8.1,19.2s-3,14.4-8.1,19.2c-4.8,4.8-11.7,8.1-19.2,8.1
	c-3.9,0-7.5,1.8-9.6,4.8c-1.5,2.1-2.4,4.5-2.4,7.2v30.5c0,6.6,5.4,12,12,12h38c3,0,5.7,1.2,7.8,3
	C1566.3,860.9,1567.8,864.2,1567.8,867.8z"/>
<path class="st3" d="M1900,671.8h-17.4c-1.2,0-2.4-0.6-2.4-1.2v-18.9c0-0.6,1.2-1.2,2.4-1.2h15.3c12.3,0,22.1-4.8,22.1-10.5l0,0
	c0-5.7-9.9-10.5-22.1-10.5h-57.2c-12.3,0-22.1,4.8-22.1,10.5l0,0c0,5.7,9.9,10.5,22.1,10.5h14.4c1.2,0,2.4,0.6,2.4,1.2v18.9
	c0,0.6,1.2,1.2,2.4,1.2l0,0c-22.4,0-40.7,8.7-40.7,19.2l0,0c0,10.5,18.3,19.2,40.7,19.2h40.1c22.4,0,40.7-8.7,40.7-19.2l0,0
	C1940.7,680.4,1922.4,671.8,1900,671.8z"/>
<path class="st4" d="M2117.3,743L2117.3,743c-6,4.8-13.5,7.8-21.2,8.7c-1.5,0.3-3,0.3-4.8,0.3h-108.6c-23,0-41.9-18.9-41.9-41.9
	c0-11.7,4.8-22.1,12.3-29.6c7.5-7.5,18-12.3,29.6-12.3h108.9C2102.9,691.8,2111.6,716.6,2117.3,743z"/>
<path class="st4" d="M1900.6,965v-6.6c0-6,4.8-11.1,11.1-11.1h24.8c6,0,11.1-4.8,11.1-11.1v-6.6c0-6-4.8-11.1-11.1-11.1h-59
	c-6,0-11.1-4.8-11.1-11.1V901c0-6,4.8-11.1,11.1-11.1h27.5c6,0,11.1-4.8,11.1-11.1v-19.2c0-6-4.8-11.1-11.1-11.1h-113.4
	c-6,0-11.1,4.8-11.1,11.1v19.2c0,6,4.8,11.1,11.1,11.1h45.5c6,0,11.1,4.8,11.1,11.1v6.6c0,6-4.8,11.1-11.1,11.1l0,0
	c-6,0-11.1,4.8-11.1,11.1v6.6c0,6,4.8,11.1,11.1,11.1h36.2c6,0,11.1,4.8,11.1,11.1v6.6c0,6-4.8,11.1-11.1,11.1h-0.9
	c-6,0-11.1,4.8-11.1,11.1v6.6c0,6,4.8,11.1,11.1,11.1h102c6,0,11.1-4.8,11.1-11.1v-6.6c0-6-4.8-11.1-11.1-11.1h-62.8
	C1905.7,976.1,1900.6,971,1900.6,965z"/>
<path class="st4" d="M1697.7,688.2v-7.5c0-4.2,3.3-7.5,7.5-7.5h30.5c4.2,0,7.5-3.3,7.5-7.5V640c0-4.2-3.3-7.5-7.5-7.5h-120
	c-4.2,0-7.5,3.3-7.5,7.5v25.7c0,4.2,3.3,7.5,7.5,7.5h13.5c4.2,0,7.5,3.3,7.5,7.5v7.5c0,4.2-3.3,7.5-7.5,7.5l0,0
	c-4.2,0-7.5,3.3-7.5,7.5v25.7c0,4.2,3.3,7.5,7.5,7.5h158.3c4.2,0,7.5-3.3,7.5-7.5v-25.7c0-4.2-3.3-7.5-7.5-7.5h-82
	C1701,695.7,1697.7,692.4,1697.7,688.2z"/>
<g>
	<path class="st1" d="M1794.1,481.7c-181.9,0-329.2,147.5-329.2,329.2c0,15.3,0.9,30.2,3,45.2c0,0.9,0.3,1.8,0.3,3
		c23.3,159.2,160.1,281.3,325.9,281.3c182,0,329.2-147.5,329.2-329.2C2123.5,629,1976,481.7,1794.1,481.7z M1794.4,1117.1
		c-134.4,0-248.7-86.5-290-206.8c-10.8-31.1-16.5-64.6-16.5-99.7c0-21.8,2.4-42.8,6.6-63.4c29.3-138.9,152.3-243,299.9-243
		c169.4,0,306.4,137.4,306.4,306.4C2100.8,980,1963.7,1117.1,1794.4,1117.1z"/>
</g>
</svg>
