<?xml version="1.0" encoding="utf-8"?>
<!-- Generator: Adobe Illustrator 21.1.0, SVG Export Plug-In . SVG Version: 6.00 Build 0)  -->
<svg version="1.1" id="Layer_1" xmlns="http://www.w3.org/2000/svg" xmlns:xlink="http://www.w3.org/1999/xlink" x="0px" y="0px"
	 viewBox="0 0 2560 1600" style="enable-background:new 0 0 2560 1600;" xml:space="preserve">
<style type="text/css">
	.st0{fill:#303568;}
	.st1{fill:#9FDEED;}
	.st2{fill:#7AD8ED;}
	.st3{opacity:0.3;}
	.st4{fill:#2C80BF;}
</style>
<g>
	<rect x="0.5" y="-0.5" class="st0" width="2559" height="1599"/>
	<path d="M2559,0v1598H1V0H2559 M2560-1H0v1600h2560V-1L2560-1z"/>
</g>
<g>
	
		<ellipse transform="matrix(0.7577 -0.6526 0.6526 0.7577 -54.666 1379.826)" class="st1" cx="1830.9" cy="763.5" rx="345.4" ry="345.4"/>
</g>
<g>
	<path class="st2" d="M2041.9,753l-126.3,108.8l-0.3-0.3l-34.5,29.7c-7.9,6.8-19.8,6-26.7-2c-3.4-3.9-4.9-8.9-4.5-13.7
		s2.5-9.5,6.5-12.8l4.5-3.9c1.6-0.7,3-1.7,4.4-2.9l111.4-95.9c8-6.9,8.8-18.8,2-26.7l0,0c-6.9-8-18.8-8.8-26.7-2l-111.4,95.9
		c-0.6,0.5-1.1,1.1-1.7,1.7l-50.4,43.4c-7.9,6.8-19.8,6-26.7-2c-3.4-3.9-4.9-8.9-4.5-13.7c0.4-4.8,2.5-9.5,6.5-12.8l41.8-36
		c0.7-0.5,1.5-1,2.2-1.6l115.9-99.8c8-6.9,8.8-18.8,2-26.7c-6.9-8-18.8-8.8-26.7-2l-115.9,99.8c-1.4,1.2-2.4,2.4-3.3,3.8l-2.4,2.1
		c-7.9,6.8-19.8,6-26.6-1.9c-3.4-3.9-4.9-8.9-4.5-13.7c0.4-4.8,2.5-9.5,6.5-12.8l40.6-35l-0.2-0.2l47.9-41.2c8-6.9,8.8-18.8,2-26.7
		c-6.9-8-18.8-8.8-26.7-2l-47.9,41.2l-0.1-0.2l-93.4,80.4c-7.9,6.8-19.9,5.9-26.7-2c-3.4-3.9-4.9-8.9-4.5-13.7
		c0.4-4.8,2.5-9.5,6.5-12.8l68.3-58.8c1.4-0.7,2.7-1.6,4-2.6l115.3-99.3c8-6.9,8.8-18.8,2-26.7l0,0c-6.9-8-18.8-8.8-26.7-2
		L1697.7,653c-0.8,0.7-1.6,1.5-2.3,2.4l-10.5,9c-7.9,6.8-19.8,6-26.7-2c-3.4-3.9-4.9-8.9-4.5-13.7c0.4-4.8,2.5-9.5,6.5-12.8l12-10.3
		c0.3-0.3,0.7-0.4,1.1-0.8l57.1-49.1c8-6.9,8.8-18.8,2-26.7c-6.9-8-18.8-8.8-26.7-2l-45.6,39.3c-7.8,5-18.2,3.7-24.5-3.6
		c-3.4-3.9-4.9-8.9-4.5-13.7c0.4-4.8,2.5-9.5,6.5-12.8l5.5-4.8c0.7-0.4,1.3-0.9,1.9-1.4l28.4-24.5c8-6.9,8.8-18.8,2-26.7
		c-6.9-8-18.8-8.8-26.7-2l-28.4,24.5c-0.1,0.1-0.2,0.2-0.3,0.3c-133.6,116.1-148.4,318.5-32.8,452.8
		c115.9,134.6,318.9,149.8,453.5,34.1l0.1-0.1l0.2-0.2l0,0l0,0l20.4-17.6c8-6.9,8.8-18.8,2-26.7l0,0c-6.9-8-18.8-8.8-26.7-2
		l-20.4,17.6l-0.9-1.1l-4.8,4.1c-7.9,6.8-19.8,6-26.7-2c-3.4-3.9-4.9-8.9-4.5-13.7c0.4-4.8,2.5-9.5,6.5-12.8l4.8-4.1l-0.5-0.5
		l65.8-56.6c8-6.9,8.8-18.8,2-26.7l0,0c-6.9-8-18.8-8.8-26.7-2l-65.8,56.6l-0.4-0.5l-40.6,35c-7.9,6.8-19.9,5.9-26.7-2
		c-3.4-3.9-4.9-8.9-4.5-13.7c0.4-4.8,2.5-9.5,6.5-12.8l40.6-35l-0.1-0.2L2066.9,783c8-6.9,8.8-18.8,2-26.7l0,0
		C2061.8,747.1,2049.8,746.2,2041.9,753z"/>
</g>
<g class="st3">
	<path class="st4" d="M2323.6,487.8c6.1,7,5.3,17.7-1.8,23.8L1533.1,1191c-3.6,3.1-8,4.4-12.2,4.1c-4.4-0.3-8.5-2.3-11.5-5.8
		c-6-7-5.3-17.3,1.5-23.4l70.6-60.8c3.6-3.1,5.5-7.2,5.8-11.5c0.3-4.4-1.1-8.7-4.1-12.2c-6.1-7-16.7-7.9-23.8-1.8l-118.4,102
		c-7,6.1-17.7,5.3-23.8-1.8c-6.1-7-5.2-17.7,1.8-23.8l102.2-88c3.6-3.1,5.5-7.2,5.8-11.5c0.3-4.4-1.1-8.7-4.1-12.2
		c-6.1-7-16.7-7.9-23.8-1.8l-75.3,64.9c-7,6.1-17.6,5.3-23.8-1.8c-6.1-7-5.3-17.6,1.8-23.7L1545.5,958c7.3,10.6,15.1,20.9,23.7,30.8
		l0.3,0.3c73.8-25.9,190.4-77.3,307-178.5c113.7-98.7,180.2-203.9,216.4-272.3l-0.1,0.1l-0.3-0.3c-8.5-9.9-17.6-19.3-27-28
		l143.6-123.7c7-6.1,17.6-5.3,23.7,1.8s5.3,17.7-1.7,23.8l-81.4,70.1c-3.6,3.1-5.5,7.2-5.8,11.5c-0.3,4.4,1.1,8.7,4.1,12.2
		c6.1,7,16.8,7.8,23.8,1.8l49-42.2c7-6.1,17.7-5.3,23.8,1.7c6.1,7,5.3,17.8-1.8,23.8l-39.5,34c-3.6,3.1-5.5,7.2-5.8,11.5
		c-0.3,4.4,1.1,8.7,4.1,12.2c6.1,7,16.7,7.9,23.8,1.8l54-46.5c0.1-0.1,0.2-0.2,0.3-0.3l20.4-17.6c3.6-3.1,8-4.4,12.2-4.1
		C2316.4,482.3,2320.6,484.2,2323.6,487.8z"/>
</g>
</svg>
