<svg id="Layer_1" data-name="Layer 1" xmlns="http://www.w3.org/2000/svg" viewBox="0 0 659.5 659.3"><defs><style>.cls-1{fill:#af8456;}.cls-2{fill:#2771c1;}.cls-3{fill:#17ce31;}.cls-4{fill:#fff;}</style></defs><title>tellus111</title><path d="M1094.1-480.7v1598h-2558v-1598h2558m1-1h-2560v1600h2560v-1600Z"/><path class="cls-1" d="M329.2.9C147.3.9,0,148.4,0,330.1c0,182,147.5,329.2,329.2,329.2,182,0,329.2-147.5,329.2-329.2C658.6,148.2,511.1.9,329.2.9Zm.3,635.4c-169.4,0-306.4-137.4-306.4-306.4,0-169.4,137.4-306.4,306.4-306.4S635.9,160.9,635.9,329.9C635.9,499.2,498.8,636.3,329.5,636.3Z"/><circle class="cls-2" cx="329.5" cy="329.8" r="306.4"/><path class="cls-3" d="M282.2,97.3v32.3a16,16,0,0,1-15.9,15.9H231.9a15.62,15.62,0,0,0-11.1,4.5,16.75,16.75,0,0,0-4.5,11.1A16,16,0,0,0,232.2,177h10.5a16,16,0,0,1,15.9,15.9v41.9a16,16,0,0,1-15.9,15.9H10.8a318.43,318.43,0,0,1,28.1-73.3H185.8a15.62,15.62,0,0,0,11.1-4.5,16.75,16.75,0,0,0,4.5-11.1,16,16,0,0,0-15.9-15.9h-6.6A16,16,0,0,1,163,130V97.7a16,16,0,0,1,15.9-15.9h87.7A15.35,15.35,0,0,1,282.2,97.3Z"/><path class="cls-3" d="M659.5,330.1a327.8,327.8,0,0,1-17.1,105H421.8a68.16,68.16,0,0,1-68.2-68.2,66.8,66.8,0,0,1,20.1-48.2,68,68,0,0,1,48.2-20.1H658C658.9,309.2,659.5,319.6,659.5,330.1Z"/><path class="cls-3" d="M292.7,556.4v14.4a18.51,18.51,0,0,1-8.7,15.9,18.19,18.19,0,0,1-10.5,3.3h-146c-2.7-2.1-5.7-4.5-8.4-6.6a349.84,349.84,0,0,1-38.3-37.7,15,15,0,0,1,2.1-2.4,18.57,18.57,0,0,1,13.5-5.7,20.62,20.62,0,0,0,7.2-1.5,18.64,18.64,0,0,0,12-17.7V502.2A19.33,19.33,0,0,0,96.4,483H38.6c-9-17.4-16.8-35.3-22.4-54.5A366.53,366.53,0,0,1,4.5,377H165.2a19.33,19.33,0,0,1,19.2,19.2v67.6A19.33,19.33,0,0,1,165.2,483H149a19.33,19.33,0,0,0-19.2,19.2v16.2A19.33,19.33,0,0,0,149,537.6H273.8C284.3,537.2,292.7,545.9,292.7,556.4Z"/><path class="cls-3" d="M119.4,297.5a26.25,26.25,0,0,1-8.1,19.2,27.47,27.47,0,0,1-19.2,8.1H1.1V320a340.38,340.38,0,0,1,5.4-49.7H92.1A27.31,27.31,0,0,1,119.4,297.5Z"/><path class="cls-4" d="M284.3,585.4v7.5a27.29,27.29,0,0,1-27.2,27.2H174.5a356.91,356.91,0,0,1-46.7-30.5c-2.7-2.1-5.7-4.5-8.4-6.6a26.88,26.88,0,0,1,12-20.1h0a26.49,26.49,0,0,1,15.3-4.8H257.4A27.39,27.39,0,0,1,284.3,585.4Z"/><path class="cls-4" d="M102.9,386.1v30.5a12,12,0,0,1-12,12H15.8A328.77,328.77,0,0,1,4.1,377.1H3.2c0-.9-.3-1.8-.3-3H4.1a12,12,0,0,0,12-12V331.6a12.21,12.21,0,0,0-2.4-7.2,11.66,11.66,0,0,0-9.6-4.8h-3a340.38,340.38,0,0,1,5.4-49.7c.3-1.5.6-3.3.9-4.8H53.2a26.49,26.49,0,0,1,15.3,4.8,20.66,20.66,0,0,1,3.9,3.3,27.47,27.47,0,0,1,8.1,19.2,26.25,26.25,0,0,1-8.1,19.2,27.47,27.47,0,0,1-19.2,8.1,11.66,11.66,0,0,0-9.6,4.8,12.21,12.21,0,0,0-2.4,7.2v30.5a12,12,0,0,0,12,12h38a12,12,0,0,1,7.8,3A11.6,11.6,0,0,1,102.9,386.1Z"/><path class="cls-3" d="M435.1,190.1H417.7c-1.2,0-2.4-.6-2.4-1.2V170c0-.6,1.2-1.2,2.4-1.2H433c12.3,0,22.1-4.8,22.1-10.5h0c0-5.7-9.9-10.5-22.1-10.5H375.8c-12.3,0-22.1,4.8-22.1,10.5h0c0,5.7,9.9,10.5,22.1,10.5h14.4c1.2,0,2.4.6,2.4,1.2v18.9c0,.6,1.2,1.2,2.4,1.2h0c-22.4,0-40.7,8.7-40.7,19.2h0c0,10.5,18.3,19.2,40.7,19.2h40.1c22.4,0,40.7-8.7,40.7-19.2h0C475.8,198.7,457.5,190.1,435.1,190.1Z"/><path class="cls-4" d="M652.4,261.3h0a42,42,0,0,1-21.2,8.7,24.25,24.25,0,0,1-4.8.3H517.8a41.9,41.9,0,0,1,0-83.8H626.7A337.15,337.15,0,0,1,652.4,261.3Z"/><path class="cls-4" d="M435.7,483.3v-6.6a11.07,11.07,0,0,1,11.1-11.1h24.8a11.07,11.07,0,0,0,11.1-11.1v-6.6a11.07,11.07,0,0,0-11.1-11.1h-59a11.07,11.07,0,0,1-11.1-11.1v-6.4a11.07,11.07,0,0,1,11.1-11.1h27.5a11.07,11.07,0,0,0,11.1-11.1V377.9a11.07,11.07,0,0,0-11.1-11.1H326.7a11.07,11.07,0,0,0-11.1,11.1v19.2a11.07,11.07,0,0,0,11.1,11.1h45.5a11.07,11.07,0,0,1,11.1,11.1v6.6A11.07,11.07,0,0,1,372.2,437h0a11.07,11.07,0,0,0-11.1,11.1v6.6a11.07,11.07,0,0,0,11.1,11.1h36.2a11.07,11.07,0,0,1,11.1,11.1v6.6a11.07,11.07,0,0,1-11.1,11.1h-.9a11.07,11.07,0,0,0-11.1,11.1v6.6a11.07,11.07,0,0,0,11.1,11.1h102a11.07,11.07,0,0,0,11.1-11.1v-6.6a11.07,11.07,0,0,0-11.1-11.1H446.7A11.57,11.57,0,0,1,435.7,483.3Z"/><path class="cls-4" d="M232.8,206.5V199a7.43,7.43,0,0,1,7.5-7.5h30.5a7.43,7.43,0,0,0,7.5-7.5V158.3a7.43,7.43,0,0,0-7.5-7.5h-120a7.43,7.43,0,0,0-7.5,7.5V184a7.43,7.43,0,0,0,7.5,7.5h13.5a7.43,7.43,0,0,1,7.5,7.5v7.5a7.43,7.43,0,0,1-7.5,7.5h0a7.43,7.43,0,0,0-7.5,7.5v25.7a7.43,7.43,0,0,0,7.5,7.5H322.6a7.43,7.43,0,0,0,7.5-7.5V221.5a7.43,7.43,0,0,0-7.5-7.5h-82A7.5,7.5,0,0,1,232.8,206.5Z"/><path class="cls-1" d="M329.2,0C147.3,0,0,147.5,0,329.2a323.77,323.77,0,0,0,3,45.2c0,.9.3,1.8.3,3C26.6,536.6,163.4,658.7,329.2,658.7c182,0,329.2-147.5,329.2-329.2C658.6,147.3,511.1,0,329.2,0Zm.3,635.4c-134.4,0-248.7-86.5-290-206.8A303.07,303.07,0,0,1,23,328.9a315.63,315.63,0,0,1,6.6-63.4c29.3-138.9,152.3-243,299.9-243,169.4,0,306.4,137.4,306.4,306.4C635.9,498.3,498.8,635.4,329.5,635.4Z"/></svg>