<?xml version="1.0" encoding="utf-8"?>
<!-- Generator: Adobe Illustrator 21.1.0, SVG Export Plug-In . SVG Version: 6.00 Build 0)  -->
<svg version="1.1" id="Layer_1" xmlns="http://www.w3.org/2000/svg" xmlns:xlink="http://www.w3.org/1999/xlink" x="0px" y="0px"
	 viewBox="0 0 2560 1600" style="enable-background:new 0 0 2560 1600;" xml:space="preserve">
<style type="text/css">
	.st0{fill:#303568;}
	.st1{fill:#968383;}
	.st2{fill:#A07067;}
	.st3{fill:#8C7E7E;}
	.st4{fill:#42210B;}
	.st5{fill:url(#SVGID_1_);}
	.st6{fill:#68412C;}
	.st7{fill:#808184;}
	.st8{fill:#A09E9D;}
	.st9{fill:#898481;}
	.st10{fill:#AF8456;}
	.st11{fill:#AF936D;}
	.st12{fill:#E0B975;}
	.st13{fill:#2771C1;}
	.st14{fill:#17CE31;}
	.st15{fill:#FFFFFF;}
	.st16{fill:#8E5151;}
	.st17{fill:#BA704F;}
	.st18{fill:#8E6D5C;}
	.st19{fill:#7592DB;}
	.st20{fill:#677FC9;}
	.st21{fill:#3A60BF;}
	.st22{fill:#9FDEED;}
	.st23{fill:#7AD8ED;}
	.st24{opacity:0.3;}
	.st25{fill:#2C80BF;}
	.st26{fill:#EF882B;}
	.st27{fill:#F42308;}
	.st28{fill:#E5E15C;}
</style>
<g>
	<rect x="0.5" y="0.5" class="st0" width="2559" height="1599"/>
	<path d="M2559,1v1598H1V1H2559 M2560,0H0v1600h2560V0L2560,0z"/>
</g>
<g>
	<circle class="st1" cx="1777.5" cy="805.4" r="130"/>
</g>
<g>
	<path class="st2" d="M1840.3,854.2h-62.7v-0.1h-17.1c-3.9,0-7.1-3.2-7.1-7.1c0-2,0.8-3.7,2.1-5c1.3-1.3,3.1-2.1,5-2.1h2.2
		c0.6,0.2,1.3,0.3,2,0.3h55.3c3.9,0,7.1-3.2,7.1-7.1l0,0c0-3.9-3.2-7.1-7.1-7.1h-55.3c-0.3,0-0.6,0-0.9,0.1h-25
		c-3.9,0-7.1-3.2-7.1-7.1c0-2,0.8-3.7,2.1-5c1.3-1.3,3.1-2.1,5-2.1h20.7c0.3,0,0.7,0.1,1,0.1h57.5c3.9,0,7.1-3.2,7.1-7.1
		s-3.2-7.1-7.1-7.1h-57.5c-0.7,0-1.3,0.1-1.9,0.3h-1.2c-3.9,0-7.1-3.2-7.1-7.1c0-2,0.8-3.7,2.1-5c1.3-1.3,3.1-2.1,5-2.1h20.2v-0.3
		h23.8c3.9,0,7.1-3.2,7.1-7.1s-3.2-7.1-7.1-7.1h-23.8v-0.1h-46.3c-3.9,0-7.1-3.2-7.1-7.1c0-2,0.8-3.7,2.1-5c1.3-1.3,3.1-2.1,5-2.1
		h33.9c0.6,0.1,1.1,0.2,1.8,0.2h57.3c3.9,0,7.1-3.2,7.1-7.1l0,0c0-3.9-3.2-7.1-7.1-7.1H1767c-0.4,0-0.8,0-1.2,0.1h-5.2
		c-3.9,0-7.1-3.2-7.1-7.1c0-2,0.8-3.7,2.1-5c1.3-1.3,3.1-2.1,5-2.1h6c0.2,0,0.3,0,0.5,0h28.3c3.9,0,7.1-3.2,7.1-7.1
		s-3.2-7.1-7.1-7.1h-22.7c-3.5-0.5-6.1-3.4-6.1-7c0-2,0.8-3.7,2.1-5c1.3-1.3,3.1-2.1,5-2.1h2.8c0.3,0,0.6,0.1,0.9,0.1h14.1
		c3.9,0,7.1-3.2,7.1-7.1s-3.2-7.1-7.1-7.1h-14.1h-0.1c-66.6,0.3-120.5,54.4-120.5,121c0,66.8,54.1,121,120.9,121.1l0,0h0.1l0,0l0,0
		h10.1c3.9,0,7.1-3.2,7.1-7.1l0,0c0-3.9-3.2-7.1-7.1-7.1h-10.1V912h-2.4c-3.9,0-7.1-3.2-7.1-7.1c0-2,0.8-3.7,2.1-5s3.1-2.1,5-2.1
		h2.4v-0.3h32.7c3.9,0,7.1-3.2,7.1-7.1l0,0c0-3.9-3.2-7.1-7.1-7.1h-32.7v-0.2h-20.2c-3.9,0-7.1-3.2-7.1-7.1c0-2,0.8-3.7,2.1-5
		c1.3-1.3,3.1-2.1,5-2.1h20.2v-0.1h62.7c3.9,0,7.1-3.2,7.1-7.1l0,0C1847.4,857.4,1844.2,854.2,1840.3,854.2z"/>
</g>
<g>
	<path class="st3" d="M1985.7,847.8c0,3.5-2.8,6.3-6.3,6.3h-391.7c-1.8,0-3.3-0.7-4.5-1.9s-1.9-2.7-1.9-4.5c0-3.4,2.8-6.3,6.2-6.3
		h35.1c1.8,0,3.3-0.7,4.5-1.9c1.1-1.1,1.9-2.7,1.9-4.5c0-3.5-2.8-6.3-6.3-6.3h-58.8c-3.5,0-6.3-2.8-6.3-6.3s2.8-6.3,6.3-6.3h50.8
		c1.8,0,3.3-0.7,4.5-1.9c1.1-1.1,1.9-2.7,1.9-4.5c0-3.5-2.8-6.3-6.3-6.3h-37.4c-3.5,0-6.3-2.8-6.3-6.3s2.8-6.3,6.3-6.3h71.3
		c-0.5,4.8-0.8,9.7-0.8,14.6v0.1c27.4,10.7,73.2,24.7,131.3,24.5c56.7-0.2,101.4-13.9,128.6-24.5l0,0v-0.1c0-4.9-0.3-9.8-0.8-14.6
		h71.3c3.5,0,6.3,2.8,6.3,6.3s-2.8,6.3-6.3,6.3h-40.5c-1.8,0-3.3,0.7-4.5,1.9s-1.9,2.7-1.9,4.5c0,3.5,2.8,6.3,6.3,6.3h24.3
		c3.5,0,6.3,2.8,6.3,6.3s-2.8,6.3-6.3,6.3h-19.6c-1.8,0-3.3,0.7-4.5,1.9c-1.1,1.1-1.9,2.7-1.9,4.5c0,3.5,2.8,6.3,6.3,6.3h26.8
		c0.1,0,0.1,0,0.2,0h10.1c1.8,0,3.3,0.7,4.5,1.9C1985,844.5,1985.7,846,1985.7,847.8z"/>
</g>
<g>
	<path class="st4" d="M1374.8,640.8c-91.3,0-165.4,74-165.4,165.4s74,165.4,165.4,165.4c91.3,0,165.4-74,165.4-165.4
		S1466.1,640.8,1374.8,640.8z M1374.9,959.9c-85,0-153.9-68.9-153.9-153.9s68.9-153.9,153.9-153.9S1528.8,721,1528.8,806
		S1459.9,959.9,1374.9,959.9z"/>
</g>
<g>
	
		<linearGradient id="SVGID_1_" gradientUnits="userSpaceOnUse" x1="1374.9083" y1="733.4082" x2="1374.9083" y2="859.825" gradientTransform="matrix(1 0 0 -1 0 1600)">
		<stop  offset="0" style="stop-color:#A67C52"/>
		<stop  offset="4.689697e-03" style="stop-color:#986F48"/>
		<stop  offset="1.557964e-02" style="stop-color:#7D5735"/>
		<stop  offset="2.810451e-02" style="stop-color:#674326"/>
		<stop  offset="4.272783e-02" style="stop-color:#56341A"/>
		<stop  offset="6.080757e-02" style="stop-color:#4B2911"/>
		<stop  offset="8.617661e-02" style="stop-color:#44230C"/>
		<stop  offset="0.1566" style="stop-color:#42210B"/>
		<stop  offset="0.262" style="stop-color:#736357"/>
		<stop  offset="0.4097" style="stop-color:#A67C52"/>
		<stop  offset="0.5473" style="stop-color:#42210B"/>
		<stop  offset="0.7113" style="stop-color:#6E4621"/>
		<stop  offset="0.8322" style="stop-color:#704822"/>
		<stop  offset="0.8689" style="stop-color:#754C24"/>
		<stop  offset="0.9481" style="stop-color:#774E26"/>
		<stop  offset="0.9766" style="stop-color:#7E542C"/>
		<stop  offset="0.9969" style="stop-color:#896037"/>
		<stop  offset="1" style="stop-color:#8C6239"/>
	</linearGradient>
	<circle class="st5" cx="1374.9" cy="806" r="153.9"/>
</g>
<g>
	<path class="st6" d="M1454.6,868.2h-79.8V868H1353c-5,0-9-4-9-9c0-2.5,1-4.7,2.6-6.4c1.6-1.6,3.9-2.6,6.4-2.6h2.9
		c0.8,0.2,1.6,0.4,2.5,0.4h70.4c5,0,9.1-4.1,9.1-9.1l0,0c0-5-4.1-9.1-9.1-9.1h-70.4c-0.4,0-0.8,0-1.1,0.1h-31.8c-5,0-9-4-9-9
		c0-2.5,1-4.7,2.6-6.4c1.6-1.6,3.9-2.6,6.4-2.6h26.4c0.4,0.1,0.8,0.1,1.3,0.1h73.2c5,0,9.1-4.1,9.1-9.1s-4.1-9.1-9.1-9.1h-73.2
		c-0.8,0-1.6,0.1-2.4,0.3h-1.5c-5,0-9-4-9-9c0-2.5,1-4.8,2.6-6.4s3.9-2.6,6.4-2.6h25.7v-0.2h30.2c5,0,9.1-4.1,9.1-9.1
		s-4.1-9.1-9.1-9.1H1375V760h-59c-5,0-9-4-9-9c0-2.5,1-4.7,2.6-6.4c1.6-1.6,3.9-2.6,6.4-2.6h43.1c0.7,0.2,1.5,0.3,2.2,0.3h72.9
		c5,0,9.1-4.1,9.1-9.1l0,0c0-5-4.1-9.1-9.1-9.1h-72.9c-0.5,0-1.1,0.1-1.6,0.1h-6.6c-5,0-9-4-9-9c0-2.5,1-4.7,2.6-6.4
		c1.6-1.6,3.9-2.6,6.4-2.6h7.6c0.2,0,0.4,0,0.6,0h36c5,0,9.1-4.1,9.1-9.1s-4.1-9.1-9.1-9.1h-28.8c-4.4-0.6-7.8-4.4-7.8-8.9
		c0-2.5,1-4.7,2.6-6.4c1.6-1.6,3.9-2.6,6.4-2.6h3.5c0.4,0,0.8,0.1,1.1,0.1h18c5,0,9.1-4.1,9.1-9.1s-4.1-9.1-9.1-9.1h-18
		c-0.1,0-0.1,0-0.2,0c-84.8,0.4-153.4,69.2-153.4,154c0,85,68.9,153.9,153.9,154l0,0h0.1l0,0l0,0h12.9c5,0,9.1-4.1,9.1-9.1l0,0
		c0-5-4.1-9.1-9.1-9.1h-12.9v-0.7h-3c-5,0-9-4-9-9c0-2.5,1-4.7,2.6-6.4s3.9-2.6,6.4-2.6h3v-0.3h41.6c5,0,9.1-4.1,9.1-9.1l0,0
		c0-5-4.1-9.1-9.1-9.1h-41.6v-0.3H1349c-5,0-9-4-9-9c0-2.5,1-4.8,2.6-6.4s3.9-2.6,6.4-2.6h25.7v-0.1h79.8c5,0,9.1-4.1,9.1-9.1l0,0
		C1463.7,872.3,1459.6,868.2,1454.6,868.2z"/>
</g>
<g>
	<path class="st7" d="M466.5,728.5c-37.3,0-67.5,30.2-67.5,67.5c0,37.3,30.2,67.5,67.5,67.5S534,833.3,534,796
		C534,758.7,503.8,728.5,466.5,728.5z M466.5,858.9c-34.7,0-62.9-28.1-62.9-62.9s28.1-62.9,62.9-62.9s62.9,28.1,62.9,62.9
		S501.2,858.9,466.5,858.9z"/>
</g>
<g>
	<circle class="st8" cx="466.5" cy="796" r="62.9"/>
</g>
<g>
	<path class="st9" d="M499.1,821.4h-32.6v-0.1h-8.9c-2,0-3.7-1.7-3.7-3.7c0-1,0.4-1.9,1.1-2.6c0.7-0.7,1.6-1.1,2.6-1.1h1.2
		c0.3,0.1,0.7,0.1,1,0.1h28.7c2,0,3.7-1.7,3.7-3.7l0,0c0-2-1.7-3.7-3.7-3.7h-28.7c-0.2,0-0.3,0-0.5,0h-13c-2,0-3.7-1.7-3.7-3.7
		c0-1,0.4-1.9,1.1-2.6c0.7-0.7,1.6-1.1,2.6-1.1h10.8c0.2,0,0.3,0,0.5,0h29.9c2,0,3.7-1.7,3.7-3.7s-1.7-3.7-3.7-3.7h-29.9
		c-0.3,0-0.7,0.1-1,0.1H456c-2,0-3.7-1.7-3.7-3.7c0-1,0.4-1.9,1.1-2.6c0.7-0.7,1.6-1.1,2.6-1.1h10.5v-0.1h12.3c2,0,3.7-1.7,3.7-3.7
		s-1.7-3.7-3.7-3.7h-12.3l0,0h-24.1c-2,0-3.7-1.7-3.7-3.7c0-1,0.4-1.9,1.1-2.6c0.7-0.7,1.6-1.1,2.6-1.1H460c0.3,0.1,0.6,0.1,0.9,0.1
		h29.8c2,0,3.7-1.7,3.7-3.7l0,0c0-2-1.7-3.7-3.7-3.7h-29.8c-0.2,0-0.4,0-0.6,0.1h-2.7c-2,0-3.7-1.7-3.7-3.7c0-1,0.4-1.9,1.1-2.6
		c0.7-0.7,1.6-1.1,2.6-1.1h3.1c0.1,0,0.2,0,0.2,0h14.7c2,0,3.7-1.7,3.7-3.7s-1.7-3.7-3.7-3.7h-11.8c-1.8-0.3-3.2-1.8-3.2-3.6
		c0-1,0.4-1.9,1.1-2.6c0.7-0.7,1.6-1.1,2.6-1.1h1.4c0.2,0,0.3,0,0.5,0h7.3c2,0,3.7-1.7,3.7-3.7s-1.7-3.7-3.7-3.7h-7.3h-0.1
		c-34.6,0.1-62.6,28.3-62.6,62.9c0,34.7,28.1,62.9,62.8,62.9l0,0h0.1l0,0l0,0h5.3c2,0,3.7-1.7,3.7-3.7l0,0c0-2-1.7-3.7-3.7-3.7h-5.3
		V851h-1.2c-2,0-3.7-1.7-3.7-3.7c0-1,0.4-1.9,1.1-2.6s1.6-1.1,2.6-1.1h1.2v-0.1h17c2,0,3.7-1.7,3.7-3.7l0,0c0-2-1.7-3.7-3.7-3.7h-17
		V836H456c-2,0-3.7-1.7-3.7-3.7c0-1,0.4-1.9,1.1-2.6s1.6-1.1,2.6-1.1h10.5l0,0h32.6c2,0,3.7-1.7,3.7-3.7l0,0
		C502.8,823.1,501.1,821.4,499.1,821.4z"/>
</g>
<g>
	<path class="st10" d="M651.8,706.8c-47.8,0-86.5,38.7-86.5,86.5c0,47.8,38.7,86.5,86.5,86.5s86.5-38.7,86.5-86.5
		C738.3,745.6,699.6,706.8,651.8,706.8z M651.8,873.9c-44.5,0-80.5-36.1-80.5-80.5c0-44.5,36.1-80.5,80.5-80.5
		c44.4,0,80.5,36.1,80.5,80.5S696.3,873.9,651.8,873.9z"/>
</g>
<g>
	<circle class="st11" cx="651.8" cy="793.3" r="80.5"/>
</g>
<g>
	<path class="st12" d="M693.5,825.9h-41.8v-0.1h-11.4c-2.6,0-4.7-2.1-4.7-4.7c0-1.3,0.5-2.5,1.4-3.3c0.9-0.9,2-1.4,3.3-1.4h1.5
		c0.4,0.1,0.9,0.2,1.3,0.2h36.8c2.6,0,4.7-2.1,4.7-4.7l0,0c0-2.6-2.1-4.7-4.7-4.7h-36.8c-0.2,0-0.4,0-0.6,0h-16.7
		c-2.6,0-4.7-2.1-4.7-4.7c0-1.3,0.5-2.5,1.4-3.3c0.9-0.9,2-1.4,3.3-1.4h13.8c0.2,0,0.4,0.1,0.7,0.1h38.3c2.6,0,4.7-2.1,4.7-4.7
		c0-2.6-2.1-4.7-4.7-4.7h-38.3c-0.4,0-0.9,0.1-1.3,0.2h-0.7c-2.6,0-4.7-2.1-4.7-4.7c0-1.3,0.5-2.5,1.4-3.3c0.9-0.9,2-1.4,3.3-1.4
		h13.4v-0.5h15.8c2.6,0,4.7-2.1,4.7-4.7s-2.1-4.7-4.7-4.7h-15.8v-0.1h-30.9c-2.6,0-4.7-2.1-4.7-4.7c0-1.3,0.5-2.5,1.4-3.3
		c0.9-0.9,2-1.4,3.3-1.4h22.6c0.4,0.1,0.8,0.2,1.2,0.2h38.1c2.6,0,4.7-2.1,4.7-4.7l0,0c0-2.6-2.1-4.7-4.7-4.7h-38.1
		c-0.3,0-0.6,0-0.8,0.1h-3.5c-2.6,0-4.7-2.1-4.7-4.7c0-1.3,0.5-2.5,1.4-3.3c0.9-0.9,2-1.4,3.3-1.4h4c0.1,0,0.2,0,0.3,0h18.9
		c2.6,0,4.7-2.1,4.7-4.7s-2.1-4.7-4.7-4.7h-15.1c-2.3-0.3-4.1-2.3-4.1-4.7c0-1.3,0.5-2.5,1.4-3.3c0.9-0.9,2-1.4,3.3-1.4h1.8
		c0.2,0,0.4,0,0.6,0h9.4c2.6,0,4.7-2.1,4.7-4.7c0-2.6-2.1-4.7-4.7-4.7h-9.4h-0.1c-44.4,0.2-80.3,36.2-80.3,80.6
		c0,44.5,36,80.6,80.5,80.6l0,0h0.1l0,0l0,0h6.7c2.6,0,4.7-2.1,4.7-4.7l0,0c0-2.6-2.1-4.7-4.7-4.7h-6.7v-0.4H650
		c-2.6,0-4.7-2.1-4.7-4.7c0-1.3,0.5-2.5,1.4-3.3c0.9-0.9,2-1.4,3.3-1.4h1.6V855h21.8c2.6,0,4.7-2.1,4.7-4.7l0,0
		c0-2.6-2.1-4.7-4.7-4.7h-21.8v-0.2h-13.3c-2.6,0-4.7-2.1-4.7-4.7c0-1.3,0.5-2.5,1.4-3.3c0.9-0.9,2-1.4,3.3-1.4h13.4l0,0h41.8
		c2.6,0,4.7-2.1,4.7-4.7l0,0C698.3,828,696.1,825.9,693.5,825.9z"/>
</g>
<g>
	<path class="st10" d="M885.9,695.6c-60.8,0-110,49.3-110,110c0,60.8,49.3,110,110,110c60.8,0,110-49.3,110-110
		C996,744.8,946.7,695.6,885.9,695.6z M886,907.9c-56.6,0-102.4-45.9-102.4-102.4c0-56.6,45.9-102.4,102.4-102.4
		S988.4,749,988.4,805.5C988.4,862.1,942.6,907.9,886,907.9z"/>
</g>
<g>
	<circle class="st13" cx="886" cy="805.5" r="102.4"/>
</g>
<path class="st14" d="M870.2,727.8v10.8c0,2.9-2.4,5.3-5.3,5.3h-11.5c-1.5,0-2.8,0.6-3.7,1.5c-0.9,1-1.5,2.3-1.5,3.7
	c0,2.9,2.4,5.3,5.3,5.3h3.5c2.9,0,5.3,2.4,5.3,5.3v14c0,2.9-2.4,5.3-5.3,5.3h-77.5c2.1-8.6,5.3-16.8,9.4-24.5H838
	c1.5,0,2.8-0.6,3.7-1.5c0.9-1,1.5-2.3,1.5-3.7c0-2.9-2.4-5.3-5.3-5.3h-2.2c-2.9,0-5.3-2.4-5.3-5.3v-10.8c0-2.9,2.4-5.3,5.3-5.3H865
	C867.9,722.6,870.2,724.9,870.2,727.8z"/>
<path class="st14" d="M996.3,805.6c0,12.3-2,24.1-5.7,35.1h-73.7c-12.6,0-22.8-10.2-22.8-22.8c0-6.3,2.5-12,6.7-16.1
	c4.1-4.1,9.8-6.7,16.1-6.7h78.9C996.1,798.6,996.3,802.1,996.3,805.6z"/>
<path class="st14" d="M873.7,881.2v4.8c0,2.2-1.1,4.2-2.9,5.3c-1,0.7-2.2,1.1-3.5,1.1h-48.8c-0.9-0.7-1.9-1.5-2.8-2.2
	c-4.6-3.9-8.9-8.1-12.8-12.6c0.2-0.3,0.4-0.5,0.7-0.8c1.2-1.2,2.7-1.9,4.5-1.9c0.8,0,1.6-0.2,2.4-0.5c2.4-0.9,4-3.2,4-5.9v-5.4
	c0-3.5-2.9-6.4-6.4-6.4h-19.3c-3-5.8-5.6-11.8-7.5-18.2c-1.7-5.6-3-11.3-3.9-17.2h53.7c3.5,0,6.4,2.9,6.4,6.4v22.6
	c0,3.5-2.9,6.4-6.4,6.4h-5.4c-3.5,0-6.4,2.9-6.4,6.4v5.4c0,3.5,2.9,6.4,6.4,6.4h41.7C870.9,874.8,873.7,877.7,873.7,881.2z"/>
<path class="st14" d="M815.8,794.7c0,2.5-1,4.8-2.7,6.4c-1.6,1.6-3.9,2.7-6.4,2.7h-30.4c0-0.5,0-1.1,0-1.6
	c0.2-5.6,0.8-11.2,1.8-16.6h28.6C811.7,785.6,815.8,789.7,815.8,794.7z"/>
<path class="st15" d="M870.9,890.9v2.5c0,5-4.1,9.1-9.1,9.1h-27.6c-5.5-3-10.7-6.4-15.6-10.2c-0.9-0.7-1.9-1.5-2.8-2.2
	c0.2-2.8,1.8-5.2,4-6.7l0,0c1.4-1,3.2-1.6,5.1-1.6h37C866.8,881.8,870.9,885.9,870.9,890.9z"/>
<path class="st15" d="M810.3,824.3v10.2c0,2.2-1.8,4-4,4h-25.1c-1.7-5.6-3.1-11.3-3.9-17.2H777c0-0.3-0.1-0.6-0.1-1h0.4
	c2.2,0,4-1.8,4-4v-10.2c0-0.9-0.3-1.7-0.8-2.4c-0.7-1-1.9-1.6-3.2-1.6h-1c0.2-5.6,0.8-11.2,1.8-16.6c0.1-0.5,0.2-1.1,0.3-1.6h15.3
	c1.9,0,3.7,0.6,5.1,1.6c0.5,0.3,0.9,0.7,1.3,1.1c1.6,1.6,2.7,3.9,2.7,6.4s-1,4.8-2.7,6.4c-1.6,1.6-3.9,2.7-6.4,2.7
	c-1.3,0-2.5,0.6-3.2,1.6c-0.5,0.7-0.8,1.5-0.8,2.4v10.2c0,2.2,1.8,4,4,4h12.7c1,0,1.9,0.4,2.6,1C809.8,822,810.3,823.1,810.3,824.3z
	"/>
<path class="st14" d="M921.3,758.8h-5.8c-0.4,0-0.8-0.2-0.8-0.4v-6.3c0-0.2,0.4-0.4,0.8-0.4h5.1c4.1,0,7.4-1.6,7.4-3.5l0,0
	c0-1.9-3.3-3.5-7.4-3.5h-19.1c-4.1,0-7.4,1.6-7.4,3.5l0,0c0,1.9,3.3,3.5,7.4,3.5h4.8c0.4,0,0.8,0.2,0.8,0.4v6.3
	c0,0.2,0.4,0.4,0.8,0.4l0,0c-7.5,0-13.6,2.9-13.6,6.4l0,0c0,3.5,6.1,6.4,13.6,6.4h13.4c7.5,0,13.6-2.9,13.6-6.4l0,0
	C934.9,761.7,928.8,758.8,921.3,758.8z"/>
<path class="st15" d="M993.9,782.6L993.9,782.6c-2,1.6-4.5,2.6-7.1,2.9c-0.5,0.1-1,0.1-1.6,0.1h-36.3c-7.7,0-14-6.3-14-14
	c0-3.9,1.6-7.4,4.1-9.9s6-4.1,9.9-4.1h36.4C989.1,765.5,992,773.8,993.9,782.6z"/>
<path class="st15" d="M921.5,856.8v-2.2c0-2,1.6-3.7,3.7-3.7h8.3c2,0,3.7-1.6,3.7-3.7V845c0-2-1.6-3.7-3.7-3.7h-19.7
	c-2,0-3.7-1.6-3.7-3.7v-2.2c0-2,1.6-3.7,3.7-3.7h9.2c2,0,3.7-1.6,3.7-3.7v-6.4c0-2-1.6-3.7-3.7-3.7h-37.9c-2,0-3.7,1.6-3.7,3.7v6.4
	c0,2,1.6,3.7,3.7,3.7h15.2c2,0,3.7,1.6,3.7,3.7v2.2c0,2-1.6,3.7-3.7,3.7l0,0c-2,0-3.7,1.6-3.7,3.7v2.2c0,2,1.6,3.7,3.7,3.7h12.1
	c2,0,3.7,1.6,3.7,3.7v2.2c0,2-1.6,3.7-3.7,3.7h-0.3c-2,0-3.7,1.6-3.7,3.7v2.2c0,2,1.6,3.7,3.7,3.7h34.1c2,0,3.7-1.6,3.7-3.7v-2.2
	c0-2-1.6-3.7-3.7-3.7h-21C923.2,860.5,921.5,858.8,921.5,856.8z"/>
<path class="st15" d="M853.7,764.3v-2.5c0-1.4,1.1-2.5,2.5-2.5h10.2c1.4,0,2.5-1.1,2.5-2.5v-8.6c0-1.4-1.1-2.5-2.5-2.5h-40.1
	c-1.4,0-2.5,1.1-2.5,2.5v8.6c0,1.4,1.1,2.5,2.5,2.5h4.5c1.4,0,2.5,1.1,2.5,2.5v2.5c0,1.4-1.1,2.5-2.5,2.5l0,0
	c-1.4,0-2.5,1.1-2.5,2.5v8.6c0,1.4,1.1,2.5,2.5,2.5h52.9c1.4,0,2.5-1.1,2.5-2.5v-8.6c0-1.4-1.1-2.5-2.5-2.5h-27.4
	C854.8,766.8,853.7,765.7,853.7,764.3z"/>
<g>
	<path class="st10" d="M885.9,695.3c-60.8,0-110,49.3-110,110c0,5.1,0.3,10.1,1,15.1c0,0.3,0.1,0.6,0.1,1c7.8,53.2,53.5,94,108.9,94
		c60.8,0,110-49.3,110-110C996,744.5,946.7,695.3,885.9,695.3z M886,907.6c-44.9,0-83.1-28.9-96.9-69.1c-3.6-10.4-5.5-21.6-5.5-33.3
		c0-7.3,0.8-14.3,2.2-21.2c9.8-46.4,50.9-81.2,100.2-81.2c56.6,0,102.4,45.9,102.4,102.4C988.4,861.8,942.6,907.6,886,907.6z"/>
</g>
<g>
	<path class="st16" d="M1100.2,740.3c-40.6,0-73.5,32.9-73.5,73.5s32.9,73.5,73.5,73.5s73.5-32.9,73.5-73.5
		C1173.7,773.3,1140.8,740.3,1100.2,740.3z M1100.2,882.3c-37.8,0-68.4-30.6-68.4-68.4s30.6-68.4,68.4-68.4s68.4,30.6,68.4,68.4
		S1138,882.3,1100.2,882.3z"/>
</g>
<g>
	<circle class="st17" cx="1100.2" cy="813.8" r="68.4"/>
</g>
<g>
	<path class="st18" d="M1135.7,841.5h-35.5v-0.1h-9.7c-2.2,0-4-1.8-4-4c0-1.1,0.4-2.1,1.2-2.8c0.7-0.7,1.7-1.2,2.8-1.2h1.3
		c0.4,0.1,0.7,0.2,1.1,0.2h31.3c2.2,0,4-1.8,4-4l0,0c0-2.2-1.8-4-4-4h-31.3c-0.2,0-0.3,0-0.5,0h-14.2c-2.2,0-4-1.8-4-4
		c0-1.1,0.4-2.1,1.2-2.8c0.7-0.7,1.7-1.2,2.8-1.2h11.7c0.2,0,0.4,0,0.6,0h32.6c2.2,0,4-1.8,4-4s-1.8-4-4-4h-32.6
		c-0.4,0-0.7,0.1-1.1,0.1h-0.7c-2.2,0-4-1.8-4-4c0-1.1,0.4-2.1,1.2-2.8c0.7-0.7,1.7-1.2,2.8-1.2h11.4v-0.1h13.4c2.2,0,4-1.8,4-4
		s-1.8-4-4-4h-13.4l0,0h-26.2c-2.2,0-4-1.8-4-4c0-1.1,0.4-2.1,1.2-2.8c0.7-0.7,1.7-1.2,2.8-1.2h19.2c0.3,0.1,0.6,0.1,1,0.1h32.4
		c2.2,0,4-1.8,4-4l0,0c0-2.2-1.8-4-4-4h-32.4c-0.2,0-0.5,0-0.7,0.1h-2.9c-2.2,0-4-1.8-4-4c0-1.1,0.4-2.1,1.2-2.8
		c0.7-0.7,1.7-1.2,2.8-1.2h3.4c0.1,0,0.2,0,0.3,0h16c2.2,0,4-1.8,4-4s-1.8-4-4-4h-12.8c-2-0.3-3.5-1.9-3.5-4c0-1.1,0.4-2.1,1.2-2.8
		c0.7-0.7,1.7-1.2,2.8-1.2h1.6c0.2,0,0.3,0,0.5,0h8c2.2,0,4-1.8,4-4s-1.8-4-4-4h-8h-0.1c-37.7,0.2-68.2,30.8-68.2,68.5
		c0,37.8,30.6,68.5,68.4,68.5l0,0h0.1l0,0l0,0h5.7c2.2,0,4-1.8,4-4l0,0c0-2.2-1.8-4-4-4h-5.7v-0.3h-1.3c-2.2,0-4-1.8-4-4
		c0-1.1,0.4-2.1,1.2-2.8c0.7-0.7,1.7-1.2,2.8-1.2h1.3v-0.1h18.5c2.2,0,4-1.8,4-4l0,0c0-2.2-1.8-4-4-4h-18.5v-0.1h-11.5
		c-2.2,0-4-1.8-4-4c0-1.1,0.4-2.1,1.2-2.8c0.7-0.7,1.7-1.2,2.8-1.2h11.4l0,0h35.6c2.2,0,4-1.8,4-4l0,0
		C1139.7,843.3,1137.9,841.5,1135.7,841.5z"/>
</g>
<g>
	<path class="st19" d="M2314,749.7c-31.7,47.9-18.5,112.3,29.3,144c47.8,31.7,112.3,18.5,144-29.3c31.7-47.9,18.5-112.3-29.3-144
		C2410.2,688.7,2345.7,701.8,2314,749.7z M2481.3,860.3c-29.5,44.6-89.5,56.8-134,27.3c-44.6-29.5-56.8-89.5-27.3-134
		c29.5-44.6,89.5-56.8,134-27.3C2498.6,755.8,2510.8,815.7,2481.3,860.3z"/>
</g>
<g>
	
		<ellipse transform="matrix(0.5517 -0.834 0.834 0.5517 403.0983 2363.8884)" class="st20" cx="2400.7" cy="806.9" rx="96.7" ry="96.7"/>
</g>
<g>
	<path class="st21" d="M2460.9,786.7l-27.7,41.8l-0.1-0.1l-7.6,11.4c-1.7,2.6-5.2,3.3-7.9,1.6c-1.3-0.9-2.1-2.2-2.4-3.6
		c-0.3-1.4,0-2.9,0.8-4.2l1-1.5c0.4-0.3,0.7-0.7,1-1.2l24.4-36.9c1.7-2.6,1-6.2-1.6-7.9l0,0c-2.6-1.7-6.2-1-7.9,1.6l-24.4,36.9
		c-0.1,0.2-0.2,0.4-0.3,0.6l-11,16.7c-1.7,2.6-5.2,3.3-7.9,1.6c-1.3-0.9-2.1-2.2-2.4-3.6c-0.3-1.4,0-2.9,0.8-4.2l9.1-13.8
		c0.2-0.2,0.3-0.4,0.5-0.6l25.4-38.4c1.7-2.6,1-6.2-1.6-7.9c-2.6-1.7-6.2-1-7.9,1.6L2388,815c-0.3,0.5-0.5,0.9-0.7,1.4l-0.5,0.8
		c-1.7,2.6-5.2,3.3-7.9,1.6c-1.3-0.9-2.1-2.2-2.4-3.6c-0.3-1.4,0-2.9,0.8-4.2l8.9-13.4l-0.1,0l10.5-15.9c1.7-2.6,1-6.2-1.6-7.9
		c-2.6-1.7-6.2-1-7.9,1.6l-10.5,15.9l-0.1,0l-20.4,30.9c-1.7,2.6-5.3,3.3-7.9,1.6c-1.3-0.9-2.1-2.2-2.4-3.6c-0.3-1.4,0-2.9,0.8-4.2
		l15-22.6c0.3-0.3,0.7-0.7,0.9-1.1l25.3-38.2c1.7-2.6,1-6.2-1.6-7.9l0,0c-2.6-1.7-6.2-1-7.9,1.6l-25.2,38.1
		c-0.2,0.3-0.3,0.6-0.5,0.9l-2.3,3.5c-1.7,2.6-5.2,3.3-7.9,1.6c-1.3-0.9-2.1-2.2-2.4-3.6c-0.3-1.4,0-2.9,0.8-4.2l2.6-4
		c0.1-0.1,0.2-0.2,0.2-0.3l12.5-18.9c1.7-2.6,1-6.2-1.6-7.9c-2.6-1.7-6.2-1-7.9,1.6l-10,15.1c-1.9,2.1-5,2.6-7.4,1
		c-1.3-0.9-2.1-2.2-2.4-3.6c-0.3-1.4,0-2.9,0.8-4.2l1.2-1.8c0.2-0.2,0.3-0.4,0.4-0.6l6.2-9.4c1.7-2.6,1-6.2-1.6-7.9
		c-2.6-1.7-6.2-1-7.9,1.6l-6.2,9.4c0,0,0,0.1-0.1,0.1c-29.2,44.5-16.9,104.3,27.5,133.7c44.6,29.5,104.6,17.3,134.1-27.2l0,0l0-0.1
		l0,0l0,0l4.5-6.7c1.7-2.6,1-6.2-1.6-7.9l0,0c-2.6-1.7-6.2-1-7.9,1.6l-4.5,6.7l-0.4-0.2l-1,1.6c-1.7,2.6-5.2,3.3-7.9,1.6
		c-1.3-0.9-2.1-2.2-2.4-3.6c-0.3-1.4,0-2.9,0.8-4.2l1-1.6l-0.2-0.1l14.4-21.8c1.7-2.6,1-6.2-1.6-7.9l0,0c-2.6-1.7-6.2-1-7.9,1.6
		l-14.4,21.8l-0.2-0.1l-8.9,13.4c-1.7,2.6-5.3,3.3-7.9,1.6c-1.3-0.9-2.1-2.2-2.4-3.6c-0.3-1.4,0-2.9,0.8-4.2l8.9-13.4l-0.1,0
		l27.7-41.8c1.7-2.6,1-6.2-1.6-7.9l0,0C2466.2,783.4,2462.6,784.1,2460.9,786.7z"/>
</g>
<g>
	
		<ellipse transform="matrix(0.5362 -0.8441 0.8441 0.5362 313.0109 2167.1804)" class="st22" cx="2128.6" cy="798.8" rx="111.7" ry="111.7"/>
</g>
<g>
	<path class="st23" d="M2192.9,775.7l-28.9,45.5l-0.1-0.1l-7.9,12.4c-1.8,2.8-5.6,3.7-8.4,1.9c-1.4-0.9-2.3-2.3-2.7-3.8
		s-0.1-3.2,0.8-4.6l1-1.6c0.4-0.4,0.8-0.8,1.1-1.3l25.5-40.1c1.8-2.9,1-6.6-1.9-8.4l0,0c-2.9-1.8-6.6-1-8.4,1.9l-25.5,40.1
		c-0.1,0.2-0.3,0.5-0.4,0.7l-11.5,18.2c-1.8,2.8-5.6,3.7-8.4,1.9c-1.4-0.9-2.3-2.3-2.7-3.8s-0.1-3.2,0.8-4.6l9.6-15
		c0.2-0.2,0.4-0.5,0.5-0.7l26.5-41.7c1.8-2.9,1-6.6-1.9-8.4c-2.9-1.8-6.6-1-8.4,1.9l-26.5,41.7c-0.3,0.5-0.5,1-0.7,1.5l-0.6,0.9
		c-1.8,2.8-5.6,3.7-8.4,1.9c-1.4-0.9-2.3-2.3-2.7-3.8s-0.1-3.2,0.8-4.6l9.3-14.6l-0.1-0.1l11-17.3c1.8-2.9,1-6.6-1.9-8.4
		c-2.9-1.8-6.6-1-8.4,1.9l-11,17.3l-0.1,0l-21.4,33.6c-1.8,2.8-5.6,3.7-8.4,1.9c-1.4-0.9-2.3-2.3-2.7-3.8s-0.1-3.2,0.8-4.6
		l15.6-24.6c0.4-0.3,0.7-0.7,1-1.2l26.4-41.6c1.8-2.9,1-6.6-1.9-8.4l0,0c-2.9-1.8-6.6-1-8.4,1.9L2077,777c-0.2,0.3-0.4,0.6-0.5,1
		l-2.4,3.8c-1.8,2.8-5.6,3.7-8.4,1.9c-1.4-0.9-2.3-2.3-2.7-3.8c-0.3-1.5-0.1-3.2,0.8-4.6l2.7-4.3c0.1-0.1,0.2-0.2,0.3-0.3l13.1-20.6
		c1.8-2.9,1-6.6-1.9-8.4c-2.9-1.8-6.6-1-8.4,1.9l-10.4,16.4c-2,2.3-5.3,2.8-7.9,1.2c-1.4-0.9-2.3-2.3-2.7-3.8
		c-0.3-1.5-0.1-3.2,0.8-4.6l1.3-2c0.2-0.2,0.3-0.4,0.5-0.6l6.5-10.2c1.8-2.9,1-6.6-1.9-8.4c-2.9-1.8-6.6-1-8.4,1.9l-6.5,10.2
		c0,0-0.1,0.1-0.1,0.1c-30.5,48.5-16.1,112.5,32.3,143.3c48.5,30.8,112.8,16.5,143.6-31.9l0,0l0.1-0.1l0,0l0,0l4.7-7.3
		c1.8-2.9,1-6.6-1.9-8.4l0,0c-2.9-1.8-6.6-1-8.4,1.9l-4.7,7.3l-0.4-0.2l-1.1,1.7c-1.8,2.8-5.6,3.7-8.4,1.9c-1.4-0.9-2.3-2.3-2.7-3.8
		c-0.3-1.5-0.1-3.2,0.8-4.6l1.1-1.7l-0.2-0.1l15.1-23.7c1.8-2.9,1-6.6-1.9-8.4l0,0c-2.9-1.8-6.6-1-8.4,1.9l-15.1,23.7l-0.2-0.1
		l-9.3,14.6c-1.8,2.8-5.6,3.7-8.4,1.9c-1.4-0.9-2.3-2.3-2.7-3.8c-0.3-1.5-0.1-3.2,0.8-4.6l9.3-14.6l-0.1,0l28.9-45.5
		c1.8-2.9,1-6.6-1.9-8.4l0,0C2198.5,772,2194.7,772.9,2192.9,775.7z"/>
</g>
<g class="st24">
	<path class="st25" d="M2255.3,667.2c2.5,1.6,3.3,5,1.7,7.5L2076.4,959c-0.8,1.3-2.1,2.1-3.4,2.4c-1.4,0.3-2.8,0.1-4.1-0.7
		c-2.5-1.6-3.3-4.9-1.7-7.4l16.2-25.4c0.8-1.3,1-2.8,0.7-4.1c-0.3-1.4-1.1-2.6-2.4-3.4c-2.5-1.6-5.9-0.9-7.5,1.7l-27.1,42.7
		c-1.6,2.5-5,3.3-7.5,1.7c-2.5-1.6-3.3-5-1.7-7.5l23.4-36.8c0.8-1.3,1-2.8,0.7-4.1c-0.3-1.4-1.1-2.6-2.4-3.4
		c-2.5-1.6-5.9-0.9-7.5,1.7l-17.2,27.1c-1.6,2.5-5,3.3-7.5,1.7c-2.5-1.6-3.3-5-1.7-7.5l32.9-51.7c3.3,2.6,6.6,5.1,10.2,7.3l0.1,0.1
		c20.4-14.9,51.7-41.8,78.3-84c26-41.2,36.7-80,41.5-104.6l0,0l-0.1-0.1c-3.6-2.3-7.2-4.3-11-6.1l32.9-51.7c1.6-2.5,5-3.3,7.5-1.7
		c2.5,1.6,3.3,5,1.7,7.5l-18.6,29.3c-0.8,1.3-1,2.8-0.7,4.1c0.3,1.4,1.1,2.6,2.4,3.4c2.5,1.6,5.9,0.9,7.5-1.7l11.2-17.7
		c1.6-2.5,5-3.3,7.5-1.7c2.5,1.6,3.3,5,1.7,7.5l-9,14.2c-0.8,1.3-1,2.8-0.7,4.1c0.3,1.4,1.1,2.6,2.4,3.4c2.5,1.6,5.9,0.9,7.5-1.7
		l12.4-19.5c0,0,0.1-0.1,0.1-0.1l4.7-7.3c0.8-1.3,2.1-2.1,3.4-2.4C2252.6,666.2,2254,666.4,2255.3,667.2z"/>
</g>
<g>
	<polygon class="st26" points="1,1379.2 1,232.1 63.7,207.9 23.6,357.2 176.2,332.9 106,470.5 260.3,478.5 163,598.5 312.2,638.4 
		192.1,735.6 329.8,805.6 192.1,875.7 312.2,972.8 163,1012.7 260.3,1132.7 106,1140.7 176.2,1278.3 23.6,1254.1 63.7,1403.3 	"/>
	<path class="st27" d="M63,208.8L23.3,356.3l-0.4,1.5l1.5-0.2l150.8-24l-69.4,136.1l-0.7,1.4l1.5,0.1l152.5,7.9l-96.2,118.7l-1,1.2
		l1.5,0.4l147.6,39.4l-118.8,96.1l-1.2,1l1.4,0.7l136.2,69.3l-136.2,69.3l-1.4,0.7l1.2,1l118.8,96.1L163.6,1012l-1.5,0.4l1,1.2
		l96.2,118.7l-152.5,7.9l-1.5,0.1l0.7,1.4l69.4,136.1l-150.8-24l-1.5-0.2l0.4,1.5L63,1402.5l-61.5-23.6V232.4L63,208.8 M64.4,207.1
		L0.5,231.7v1147.8l63.9,24.6l-40.1-149.4l152.8,24.3l-70.3-137.8l154.5-8L163.8,1013l149.5-39.9L193,875.8l137.9-70.2L193,735.5
		l120.3-97.3l-149.5-39.9l97.4-120.2l-154.5-8l70.3-137.8L24.3,356.6L64.4,207.1L64.4,207.1z"/>
</g>
<g>
	<path class="st28" d="M139.2,806.2c0,147.4-52,282.7-138.7,388.4V417.8C87.2,523.5,139.2,658.8,139.2,806.2z"/>
</g>
</svg>
